# File created by Blade
# Date/Time:  Tue Sep 23 19:18:47 2014
# Frame Rate: 120.000 fps
#------------------------------------------------------
:FULLY-SPECIFIED
:DEGREES
1682
root 1.516740 35.219787 1.494133 125.296768 -15.131014 -51.123741
Spine -72.920589 0.535464 24.052265
Head -7.429038 34.170701 44.518295
LeftShoulder -25.263409 34.454725 35.527240
LeftArm 98.711214 -77.447581 -127.153206
LeftForeArm 9.208398 -0.000000 95.174414
LeftHand -61.073763 -0.000000 8.374769
LeftHandThumb1 -26.253704 0.000000 33.147579
RightShoulder -46.159693 -41.891123 6.069905
RightArm 44.482303 64.552838 104.055061
RightForeArm 88.100181 -0.000000 13.134901
RightHand 18.404155 -0.000000 18.434143
RightHandThumb1 -24.326973 -0.000000 -32.862282
LeftUpLeg -101.779282 46.350683 -11.312842
LeftLeg -4.172280 -0.000000 0.000000
LeftFoot -4.834626 -5.444796 -7.197935
LeftToeBase 11.438738 -0.000000 -0.000000
RightUpLeg -3.172303 -21.377846 -38.982082
RightLeg 79.623589 -0.000000 -0.000000
RightFoot 34.663964 6.721077 -0.338108
RightToeBase 26.637981 -0.000000 -0.000000
1683
root 1.535619 35.211935 1.475643 125.234022 -15.032912 -50.915996
Spine -72.879975 0.525699 24.022975
Head -7.673034 34.078248 44.387628
LeftShoulder -25.197836 34.361659 35.570929
LeftArm 99.072901 -77.284854 -127.535664
LeftForeArm 9.130571 -0.000000 95.204676
LeftHand -61.007200 -0.000000 8.282225
LeftHandThumb1 -26.253704 0.000000 33.147579
RightShoulder -46.198804 -41.910336 6.075523
RightArm 44.387821 64.513870 103.903931
RightForeArm 87.953719 -0.000000 13.072375
RightHand 18.437804 -0.000000 18.438639
RightHandThumb1 -24.326973 -0.000000 -32.862282
LeftUpLeg -101.843781 46.226812 -11.106555
LeftLeg -4.102485 -0.000000 0.000000
LeftFoot -4.883539 -5.550759 -7.181491
LeftToeBase 11.521048 -0.000000 -0.000000
RightUpLeg -3.121090 -21.243028 -38.945819
RightLeg 79.547960 -0.000000 -0.000000
RightFoot 34.603868 6.718442 -0.389699
RightToeBase 26.642406 -0.000000 -0.000000
1684
root 1.555880 35.203509 1.457480 125.181347 -14.961626 -50.723883
Spine -72.872033 0.495128 24.004882
Head -7.794434 34.016207 44.333834
LeftShoulder -25.107057 34.390216 35.633716
LeftArm 99.172982 -77.215197 -127.706532
LeftForeArm 8.905631 -0.000000 95.312282
LeftHand -60.954575 -0.000000 8.464906
LeftHandThumb1 -26.253704 0.000000 33.147579
RightShoulder -46.104756 -41.991704 6.032068
RightArm 44.193983 64.451942 103.647374
RightForeArm 87.963180 0.000000 12.943449
RightHand 18.485075 0.000000 18.513349
RightHandThumb1 -24.326973 -0.000000 -32.862282
LeftUpLeg -101.976843 46.076567 -11.007784
LeftLeg -4.020869 -0.000000 0.000000
LeftFoot -4.894537 -5.660049 -7.132628
LeftToeBase 11.508976 -0.000000 -0.000000
RightUpLeg -3.075883 -21.104535 -38.951453
RightLeg 79.485631 -0.000000 -0.000000
RightFoot 34.492718 6.773059 -0.401362
RightToeBase 26.891413 -0.000000 -0.000000
1685
root 1.577330 35.197755 1.439438 125.149833 -14.886298 -50.554559
Spine -72.854492 0.488134 23.942025
Head -8.008135 33.978363 44.243231
LeftShoulder -25.096433 34.397111 35.659387
LeftArm 99.350274 -76.969124 -127.895057
LeftForeArm 8.801580 -0.000000 95.442379
LeftHand -60.967932 0.000000 8.391253
LeftHandThumb1 -26.253704 0.000000 33.147579
RightShoulder -46.057835 -42.043802 6.031504
RightArm 43.911526 64.331186 103.292380
RightForeArm 87.948818 -0.000000 12.836565
RightHand 18.568693 -0.000000 18.489290
RightHandThumb1 -24.326973 -0.000000 -32.862282
LeftUpLeg -102.200476 45.922453 -11.022011
LeftLeg -3.936791 -0.000000 0.000000
LeftFoot -4.856542 -5.791800 -7.010129
LeftToeBase 11.427587 -0.000000 -0.000000
RightUpLeg -3.103536 -20.940613 -38.959169
RightLeg 79.456176 -0.000000 -0.000000
RightFoot 34.500241 6.873210 -0.513698
RightToeBase 27.040940 -0.000000 -0.000000
1686
root 1.598387 35.193029 1.421245 125.110384 -14.814583 -50.374291
Spine -72.835642 0.467461 23.874812
Head -8.236417 33.942157 44.146449
LeftShoulder -25.074778 34.417920 35.700351
LeftArm 99.322978 -76.753027 -127.905626
LeftForeArm 8.625922 -0.000000 95.592827
LeftHand -60.830686 0.000000 8.451284
LeftHandThumb1 -26.253704 0.000000 33.147579
RightShoulder -46.011938 -42.087520 6.036165
RightArm 43.838682 64.321122 103.197491
RightForeArm 87.880295 -0.000000 12.806569
RightHand 18.557073 -0.000000 18.416104
RightHandThumb1 -24.326973 -0.000000 -32.862282
LeftUpLeg -102.404188 45.751328 -11.015105
LeftLeg -3.857411 -0.000000 0.000000
LeftFoot -4.803869 -5.871150 -6.789019
LeftToeBase 11.288972 -0.000000 -0.000000
RightUpLeg -3.124615 -20.792024 -38.980231
RightLeg 79.446485 -0.000000 -0.000000
RightFoot 34.448484 6.961559 -0.662200
RightToeBase 27.301140 -0.000000 -0.000000
1687
root 1.620307 35.189695 1.403966 125.098925 -14.745717 -50.238435
Spine -72.819591 0.471484 23.805341
Head -8.438421 33.920884 44.064939
LeftShoulder -25.028746 34.428314 35.671379
LeftArm 99.301984 -76.726684 -127.815675
LeftForeArm 8.331960 0.000000 95.765522
LeftHand -60.759547 -0.000000 8.571006
LeftHandThumb1 -26.253704 0.000000 33.147579
RightShoulder -45.893677 -42.077947 5.994108
RightArm 43.677514 64.316129 102.964564
RightForeArm 87.798409 -0.000000 12.735830
RightHand 18.475722 -0.000000 18.286227
RightHandThumb1 -24.326973 -0.000000 -32.862282
LeftUpLeg -102.655029 45.596489 -11.088886
LeftLeg -3.795370 -0.000000 0.000000
LeftFoot -4.756536 -5.950093 -6.498593
LeftToeBase 11.181341 -0.000000 -0.000000
RightUpLeg -3.204858 -20.636176 -39.021451
RightLeg 79.460896 -0.000000 -0.000000
RightFoot 34.419021 6.966425 -0.729490
RightToeBase 27.491215 -0.000000 -0.000000
1688
root 1.642227 35.187373 1.389309 125.119802 -14.678636 -50.106335
Spine -72.836339 0.493133 23.741087
Head -8.631692 33.885056 43.974047
LeftShoulder -25.005663 34.449895 35.629784
LeftArm 99.533512 -76.585909 -127.969706
LeftForeArm 8.166010 -0.000000 95.954731
LeftHand -60.809130 -0.000000 8.463111
LeftHandThumb1 -26.253704 0.000000 33.147579
RightShoulder -45.790764 -42.073865 5.956080
RightArm 43.725563 64.362405 102.961743
RightForeArm 87.576696 0.000000 12.663002
RightHand 18.513172 -0.000000 18.313338
RightHandThumb1 -24.326973 -0.000000 -32.862282
LeftUpLeg -102.907010 45.441210 -11.164190
LeftLeg -3.759054 -0.000000 0.000000
LeftFoot -4.669523 -5.994152 -6.219887
LeftToeBase 11.017926 -0.000000 -0.000000
RightUpLeg -3.331042 -20.514302 -39.055633
RightLeg 79.466434 -0.000000 -0.000000
RightFoot 34.515268 6.845678 -0.752758
RightToeBase 27.471128 -0.000000 -0.000000
1689
root 1.664471 35.184766 1.372831 125.093707 -14.583963 -49.939069
Spine -72.812846 0.504005 23.695247
Head -8.870670 33.841272 43.822781
LeftShoulder -24.964392 34.413573 35.575210
LeftArm 99.357919 -76.551211 -127.660742
LeftForeArm 7.935231 -0.000000 96.118101
LeftHand -60.816862 0.000000 8.496919
LeftHandThumb1 -26.253704 0.000000 33.147579
RightShoulder -45.741107 -42.035243 5.940685
RightArm 43.895292 64.462792 103.101781
RightForeArm 87.177075 -0.000000 12.715341
RightHand 18.456482 -0.000000 18.103956
RightHandThumb1 -24.326973 -0.000000 -32.862282
LeftUpLeg -103.071849 45.288648 -11.102797
LeftLeg -3.715845 -0.000000 0.000000
LeftFoot -4.609794 -5.957824 -5.981540
LeftToeBase 10.918597 -0.000000 -0.000000
RightUpLeg -3.406831 -20.339342 -39.051540
RightLeg 79.460706 -0.000000 -0.000000
RightFoot 34.520013 6.781604 -0.700983
RightToeBase 27.867632 -0.000000 -0.000000
1690
root 1.682636 35.181359 1.358032 125.055182 -14.468105 -49.780925
Spine -72.789691 0.525636 23.678545
Head -9.052106 33.796651 43.696475
LeftShoulder -24.882189 34.354617 35.541514
LeftArm 99.413929 -76.488757 -127.586914
LeftForeArm 7.751195 -0.000000 96.281077
LeftHand -60.809639 -0.000000 8.446993
LeftHandThumb1 -26.253704 0.000000 33.147579
RightShoulder -45.669022 -42.033047 5.901161
RightArm 44.082406 64.541259 103.288557
RightForeArm 86.851692 0.000000 12.816138
RightHand 18.535446 0.000000 17.755330
RightHandThumb1 -24.326973 -0.000000 -32.862282
LeftUpLeg -103.258630 45.156133 -11.102400
LeftLeg -3.707322 -0.000000 0.000000
LeftFoot -4.559202 -6.023551 -5.848608
LeftToeBase 10.877718 -0.000000 -0.000000
RightUpLeg -3.485544 -20.120345 -39.034016
RightLeg 79.430612 -0.000000 -0.000000
RightFoot 34.617299 6.810854 -0.642953
RightToeBase 27.918878 -0.000000 -0.000000
1691
root 1.691882 35.175933 1.341453 124.891205 -14.309138 -49.614852
Spine -72.683685 0.494308 23.743069
Head -9.101909 33.750369 43.663900
LeftShoulder -24.807798 34.351314 35.552334
LeftArm 99.495563 -76.362897 -127.595127
LeftForeArm 7.613948 -0.000000 96.433639
LeftHand -60.827500 -0.000000 8.307769
LeftHandThumb1 -26.253704 0.000000 33.147579
RightShoulder -45.498870 -42.141472 5.855942
RightArm 44.358113 64.666730 103.604885
RightForeArm 86.465710 -0.000000 12.937265
RightHand 18.510912 0.000000 17.579344
RightHandThumb1 -24.326973 -0.000000 -32.862282
LeftUpLeg -103.242448 45.095763 -10.917335
LeftLeg -3.725000 -0.000000 0.000000
LeftFoot -4.527629 -6.091120 -5.797286
LeftToeBase 10.836013 -0.000000 -0.000000
RightUpLeg -3.449663 -19.787915 -38.986221
RightLeg 79.351588 -0.000000 -0.000000
RightFoot 34.616472 6.893802 -0.674497
RightToeBase 28.214207 -0.000000 -0.000000
